<svg width="60" height="60" viewBox="0 0 44 44" fill="none" xmlns="http://www.w3.org/2000/svg">
<g filter="url(#filter0_d_3053_1803)">
<path d="M22 34.0002C28.6274 34.0002 34 28.6277 34 22.0002C34 15.3728 28.6274 10.0002 22 10.0002C15.3726 10.0002 10 15.3728 10 22.0002C10 28.6277 15.3726 34.0002 22 34.0002Z" fill="#F3F8FB"/>
</g>
<path d="M25.8284 21.5124C25.8426 21.5599 25.853 21.6089 25.8595 21.6592C25.892 21.9094 25.8248 22.1697 25.672 22.3848L20.2804 29.8905C20.205 29.9963 20.1105 30.0875 20.0023 30.1587C19.8941 30.23 19.7745 30.2798 19.6504 30.3054C19.5263 30.3309 19.4002 30.3317 19.2795 30.3076C19.1588 30.2835 19.0459 30.235 18.9474 30.165C18.7481 30.0219 18.6184 29.8017 18.5859 29.5516C18.5534 29.3014 18.6207 29.041 18.7734 28.826L23.6557 22.0308L17.661 16.2046C17.4773 16.0237 17.376 15.7715 17.3787 15.5019C17.3815 15.2322 17.488 14.9664 17.6757 14.7612C17.7685 14.6605 17.8789 14.5782 18.0002 14.5191C18.1216 14.4599 18.2516 14.4252 18.3826 14.4168C18.5136 14.4084 18.6429 14.4266 18.7631 14.4703C18.8833 14.5139 18.9918 14.5822 19.0825 14.6712L25.5559 20.9626C25.7044 21.1088 25.799 21.3015 25.8284 21.5124Z" fill="url(#paint0_linear_3053_1803)"/>
<defs>
<filter id="filter0_d_3053_1803" x="0" y="0.000244141" width="44" height="44" filterUnits="userSpaceOnUse" color-interpolation-filters="sRGB">
<feFlood flood-opacity="0" result="BackgroundImageFix"/>
<feColorMatrix in="SourceAlpha" type="matrix" values="0 0 0 0 0 0 0 0 0 0 0 0 0 0 0 0 0 0 127 0" result="hardAlpha"/>
<feOffset/>
<feGaussianBlur stdDeviation="5"/>
<feComposite in2="hardAlpha" operator="out"/>
<feColorMatrix type="matrix" values="0 0 0 0 0 0 0 0 0 0 0 0 0 0 0 0 0 0 0.16 0"/>
<feBlend mode="normal" in2="BackgroundImageFix" result="effect1_dropShadow_3053_1803"/>
<feBlend mode="normal" in="SourceGraphic" in2="effect1_dropShadow_3053_1803" result="shape"/>
</filter>
<linearGradient id="paint0_linear_3053_1803" x1="21.6231" y1="14.4148" x2="21.6231" y2="30.3251" gradientUnits="userSpaceOnUse">
<stop stop-color="#009FDA"/>
<stop offset="1" stop-color="#004E9B"/>
</linearGradient>
</defs>
</svg>
