<svg width="16" height="16" viewBox="0 0 16 16" fill="none" xmlns="http://www.w3.org/2000/svg">
<path fill-rule="evenodd" clip-rule="evenodd" d="M6.22099 8.19093C6.39278 8.01914 6.39278 7.74062 6.22099 7.56883L0.733979 2.08182C0.328614 1.67645 0.328613 1.01923 0.733979 0.613862C1.13934 0.208496 1.79657 0.208497 2.20194 0.613862L7.68895 6.10088C7.86074 6.27266 8.13926 6.27266 8.31105 6.10088L13.7981 0.613862C14.2034 0.208496 14.8607 0.208497 15.266 0.613862C15.6714 1.01923 15.6714 1.67645 15.266 2.08182L9.77901 7.56883C9.60722 7.74062 9.60722 8.01915 9.77901 8.19093L15.266 13.6779C15.6714 14.0833 15.6714 14.7405 15.266 15.1459C14.8607 15.5513 14.2034 15.5513 13.7981 15.1459L8.31105 9.65889C8.13926 9.4871 7.86074 9.4871 7.68895 9.65889L2.20194 15.1459C1.79657 15.5513 1.13934 15.5513 0.733979 15.1459C0.328614 14.7405 0.328614 14.0833 0.733979 13.6779L6.22099 8.19093Z" fill="url(#paint0_linear_414_2082)"/>
<defs>
<linearGradient id="paint0_linear_414_2082" x1="8" y1="-0.120117" x2="8" y2="15.8799" gradientUnits="userSpaceOnUse">
<stop stop-color="#009FDA"/>
<stop offset="1" stop-color="#004E9B"/>
</linearGradient>
</defs>
</svg>
